# xmcd
#
# Track frame offsets: 
#        150
#        13945
#        27763
#        49565
#        66980
#        80770
#        87838
#        100438
#        113698
#        127693
#        139100
#        148288
#        160438
#
# Disc length: 2293 seconds
#
# Revision: 1
# Processed by: cddbd v1.5.2PL0 Copyright (c) Steve Scherf et al.
# Submitted via: ExactAudioCopy v0.99pb5
#
DISCID=b108f30d
DTITLE=Hungry John And The Blue Shadows - Hungry John And The Blue Sha
DTITLE=dows
DYEAR=1991
DGENRE=Blues
TTITLE0=Rely On Me
TTITLE1=I Feel Yong
TTITLE2=Losin' Hand
TTITLE3=Messin' With My Bread
TTITLE4=Bad Bad Wiskey
TTITLE5=I Couldn't Sleep
TTITLE6=Knock Out Blues
TTITLE7=Too Late
TTITLE8=Vagabond
TTITLE9=I Wish My Babe Would
TTITLE10=Adding Up
TTITLE11=Mean Mistreater
TTITLE12=No Time To Loose
EXTD=
EXTT0=
EXTT1=
EXTT2=
EXTT3=
EXTT4=
EXTT5=
EXTT6=
EXTT7=
EXTT8=
EXTT9=
EXTT10=
EXTT11=
EXTT12=
PLAYORDER=
